<svg width="199" height="46" viewBox="0 0 199 46" fill="none" xmlns="http://www.w3.org/2000/svg">
<path d="M22.9997 0C35.7026 0 45.9997 10.2971 45.9997 23V39.1C45.9997 40.93 45.2728 42.685 43.9788 43.979C42.6848 45.273 40.9297 46 39.0997 46H24.1497V35.9099C24.1497 33.6076 24.29 31.2225 25.4975 29.2629C26.362 27.8586 27.5185 26.6566 28.8884 25.7385C30.2583 24.8204 31.8096 24.2077 33.4371 23.9419L33.8776 23.8706C34.0592 23.8085 34.2168 23.6912 34.3284 23.5351C34.44 23.379 34.5 23.1919 34.5 23C34.5 22.8081 34.44 22.621 34.3284 22.4649C34.2168 22.3088 34.0592 22.1915 33.8776 22.1294L33.4371 22.0581C31.0591 21.6697 28.8632 20.5441 27.1594 18.8403C25.4556 17.1365 24.3301 14.9406 23.9416 12.5626L23.8703 12.1222C23.8082 11.9406 23.6909 11.7829 23.5348 11.6713C23.3787 11.5597 23.1916 11.4997 22.9997 11.4997C22.8078 11.4997 22.6208 11.5597 22.4647 11.6713C22.3086 11.7829 22.1913 11.9406 22.1292 12.1222L22.0579 12.5626C21.7922 14.1902 21.1795 15.7415 20.2614 17.1114C19.3433 18.4814 18.1412 19.6378 16.7368 20.5022C14.7772 21.7097 12.3921 21.85 10.0898 21.85H0.0273438C0.628794 9.68185 10.6832 0 22.9997 0Z" fill="#5F6FFF"/>
<path d="M0 24.15H10.0901C12.3924 24.15 14.7775 24.2903 16.7371 25.4978C18.2689 26.4417 19.5583 27.7311 20.5022 29.2629C21.7097 31.2225 21.85 33.6076 21.85 35.9099V46H6.9C5.07001 46 3.31496 45.273 2.02096 43.979C0.726962 42.685 0 40.93 0 39.1L0 24.15ZM46 2.3C46 2.91 45.7577 3.49501 45.3263 3.92635C44.895 4.35768 44.31 4.6 43.7 4.6C43.09 4.6 42.505 4.35768 42.0737 3.92635C41.6423 3.49501 41.4 2.91 41.4 2.3C41.4 1.69 41.6423 1.10499 42.0737 0.673654C42.505 0.242321 43.09 0 43.7 0C44.31 0 44.895 0.242321 45.3263 0.673654C45.7577 1.10499 46 1.69 46 2.3Z" fill="#5F6FFF"/>
<path d="M70.532 37.34C68.7867 37.34 67.166 37.034 65.67 36.422C64.174 35.7873 62.8593 34.9147 61.726 33.804C60.6153 32.6707 59.754 31.356 59.142 29.86C58.5527 28.364 58.258 26.7547 58.258 25.032C58.258 23.3093 58.5527 21.7 59.142 20.204C59.754 18.708 60.6153 17.4047 61.726 16.294C62.8593 15.1833 64.1627 14.3107 65.636 13.676C67.132 13.0413 68.764 12.724 70.532 12.724C72.436 12.724 74.1133 13.0413 75.564 13.676C77.0147 14.288 78.2953 15.138 79.406 16.226L76.278 19.354C75.6207 18.6287 74.816 18.062 73.864 17.654C72.912 17.246 71.8013 17.042 70.532 17.042C69.4213 17.042 68.4013 17.2347 67.472 17.62C66.5653 17.9827 65.772 18.5267 65.092 19.252C64.412 19.9547 63.8907 20.8047 63.528 21.802C63.1653 22.7767 62.984 23.8533 62.984 25.032C62.984 26.2333 63.1653 27.3213 63.528 28.296C63.8907 29.2707 64.412 30.1207 65.092 30.846C65.772 31.5487 66.5653 32.0927 67.472 32.478C68.4013 32.8633 69.4213 33.056 70.532 33.056C71.8693 33.056 73.014 32.852 73.966 32.444C74.9407 32.036 75.7567 31.458 76.414 30.71L79.542 33.838C78.4313 34.9487 77.1393 35.81 75.666 36.422C74.1927 37.034 72.4813 37.34 70.532 37.34ZM89.2846 37.34C87.8339 37.34 86.5419 37.034 85.4086 36.422C84.2979 35.81 83.4253 34.96 82.7906 33.872C82.1559 32.784 81.8386 31.526 81.8386 30.098V20.578H86.3266V29.996C86.3266 30.676 86.4399 31.2653 86.6666 31.764C86.8933 32.24 87.2333 32.6027 87.6866 32.852C88.1399 33.1013 88.6726 33.226 89.2846 33.226C90.2139 33.226 90.9393 32.9427 91.4606 32.376C91.9819 31.8093 92.2426 31.016 92.2426 29.996V20.578H96.6966V30.098C96.6966 31.5487 96.3793 32.818 95.7446 33.906C95.1326 34.994 94.2599 35.844 93.1266 36.456C92.0159 37.0453 90.7353 37.34 89.2846 37.34ZM100.243 37V20.578H104.697V37H100.243ZM104.697 27.922L102.963 26.766C103.167 24.7487 103.757 23.162 104.731 22.006C105.706 20.8273 107.111 20.238 108.947 20.238C109.741 20.238 110.455 20.374 111.089 20.646C111.724 20.8953 112.302 21.3147 112.823 21.904L110.035 25.1C109.786 24.828 109.48 24.624 109.117 24.488C108.777 24.352 108.381 24.284 107.927 24.284C106.975 24.284 106.193 24.59 105.581 25.202C104.992 25.7913 104.697 26.698 104.697 27.922ZM120.791 37.34C119.295 37.34 117.947 36.966 116.745 36.218C115.544 35.47 114.603 34.45 113.923 33.158C113.243 31.866 112.903 30.4153 112.903 28.806C112.903 27.174 113.243 25.712 113.923 24.42C114.603 23.128 115.544 22.108 116.745 21.36C117.947 20.612 119.295 20.238 120.791 20.238C121.97 20.238 123.024 20.476 123.953 20.952C124.883 21.428 125.619 22.0967 126.163 22.958C126.73 23.7967 127.036 24.7487 127.081 25.814V31.73C127.036 32.818 126.73 33.7813 126.163 34.62C125.619 35.4587 124.883 36.1273 123.953 36.626C123.024 37.102 121.97 37.34 120.791 37.34ZM121.607 33.226C122.854 33.226 123.863 32.818 124.633 32.002C125.404 31.1633 125.789 30.0867 125.789 28.772C125.789 27.9107 125.608 27.1513 125.245 26.494C124.905 25.814 124.418 25.2927 123.783 24.93C123.171 24.5447 122.446 24.352 121.607 24.352C120.791 24.352 120.066 24.5447 119.431 24.93C118.819 25.2927 118.332 25.814 117.969 26.494C117.629 27.1513 117.459 27.9107 117.459 28.772C117.459 29.656 117.629 30.438 117.969 31.118C118.332 31.7753 118.819 32.2967 119.431 32.682C120.066 33.0447 120.791 33.226 121.607 33.226ZM125.551 37V32.58L126.265 28.568L125.551 24.624V20.578H129.971V37H125.551ZM140.439 37L132.687 13.098H137.243L142.989 31.492H141.459L147.103 13.098H150.537L156.181 31.492H154.617L160.397 13.098H164.953L157.167 37H153.733L148.055 18.64H149.551L143.907 37H140.439ZM173.242 37.34C171.519 37.34 169.989 36.9773 168.652 36.252C167.315 35.504 166.249 34.484 165.456 33.192C164.685 31.9 164.3 30.4267 164.3 28.772C164.3 27.14 164.674 25.6893 165.422 24.42C166.193 23.128 167.235 22.108 168.55 21.36C169.865 20.5893 171.327 20.204 172.936 20.204C174.523 20.204 175.917 20.5667 177.118 21.292C178.342 21.9947 179.294 22.9693 179.974 24.216C180.677 25.44 181.028 26.834 181.028 28.398C181.028 28.6927 181.005 28.9987 180.96 29.316C180.937 29.6107 180.881 29.9507 180.79 30.336L166.986 30.37V27.038L178.716 27.004L176.914 28.398C176.869 27.4233 176.687 26.6073 176.37 25.95C176.075 25.2927 175.633 24.794 175.044 24.454C174.477 24.0913 173.775 23.91 172.936 23.91C172.052 23.91 171.281 24.114 170.624 24.522C169.967 24.9073 169.457 25.4627 169.094 26.188C168.754 26.8907 168.584 27.7293 168.584 28.704C168.584 29.7013 168.765 30.574 169.128 31.322C169.513 32.0473 170.057 32.614 170.76 33.022C171.463 33.4073 172.279 33.6 173.208 33.6C174.047 33.6 174.806 33.464 175.486 33.192C176.166 32.8973 176.755 32.4667 177.254 31.9L179.872 34.518C179.079 35.4473 178.104 36.15 176.948 36.626C175.815 37.102 174.579 37.34 173.242 37.34ZM183.783 37V12.418H188.237V37H183.783ZM192.183 37V12.418H196.637V37H192.183Z" fill="#000B6D"/>
</svg>
